<svg width="41" height="21" viewBox="0 0 41 21" fill="none" xmlns="http://www.w3.org/2000/svg">
<path d="M37.5227 3.88941C35.6051 2.00012 33.0551 0.959351 30.3436 0.959351C28.5942 0.959351 26.9087 1.39356 25.4218 2.20894C23.9315 1.39356 22.2494 0.959351 20.4966 0.959351C18.7439 0.959351 17.0618 1.39356 15.5749 2.20894C14.0845 1.39356 12.4024 0.959351 10.6497 0.959351C7.93818 0.959351 5.39151 2.00012 3.47393 3.88941C1.55635 5.77871 0.5 8.28782 0.5 10.9594C0.5 13.6309 1.55635 16.1433 3.47393 18.0293C5.39151 19.9186 7.94155 20.9594 10.6497 20.9594C12.4024 20.9594 14.0845 20.5251 15.5749 19.7098C17.0652 20.5251 18.7473 20.9594 20.5 20.9594C22.2527 20.9594 23.9348 20.5251 25.4251 19.7098C26.9155 20.5251 28.5976 20.9594 30.3503 20.9594C33.0618 20.9594 35.6119 19.9186 37.5261 18.0293C39.4436 16.14 40.5 13.6276 40.5 10.9594C40.4933 8.28782 39.4403 5.77871 37.5227 3.88941ZM19.225 1.89405C18.9121 2.40449 18.6329 3.12044 18.3974 4.022C18.3671 4.14132 18.3335 4.26727 18.3066 4.38991C18.1518 4.21755 17.9937 4.04851 17.8288 3.8861C17.7279 3.78666 17.627 3.69385 17.5261 3.60105C18.0341 2.80887 18.6127 2.22882 19.225 1.89405ZM18.1451 16.783C17.913 17.0714 17.664 17.3465 17.3982 17.6083C17.3377 17.668 17.2738 17.7277 17.2098 17.7873C17.1897 17.7509 17.1728 17.7177 17.1526 17.6813C16.2107 15.8914 15.6892 13.5016 15.6892 10.9594C15.6892 8.41709 16.2107 6.0273 17.156 4.23744C17.1762 4.20098 17.193 4.16784 17.2132 4.13138C17.2771 4.19104 17.3377 4.2507 17.4016 4.31036C17.6674 4.57221 17.9163 4.85063 18.1484 5.13568C17.8221 6.81285 17.6438 8.83472 17.6438 10.9594C17.6405 13.0807 17.8188 15.1025 18.1451 16.783ZM17.9029 2.15922C17.6068 2.45753 17.3242 2.80556 17.0618 3.20662C16.9373 3.10718 16.8129 3.01106 16.685 2.91825C17.0719 2.61994 17.4756 2.36472 17.9029 2.15922ZM10.6497 20.3627C8.09966 20.3627 5.70437 19.3849 3.90118 17.6083C2.09798 15.8317 1.10555 13.4718 1.10555 10.9594C1.10555 8.44692 2.09798 6.08696 3.90118 4.31036C5.70437 2.53376 8.09966 1.55597 10.6497 1.55597C12.177 1.55597 13.6472 1.90731 14.9693 2.57022C14.3806 2.94808 13.8288 3.38892 13.3209 3.88941C11.4033 5.77871 10.3469 8.29114 10.3469 10.9594C10.3469 13.6276 11.4033 16.1433 13.3209 18.0293C13.8288 18.5298 14.3806 18.9706 14.9693 19.3485C13.6472 20.0114 12.177 20.3627 10.6497 20.3627ZM15.5749 19.0203C14.9188 18.6292 14.3066 18.1586 13.7481 17.6083C11.9449 15.8317 10.9525 13.4718 10.9525 10.9594C10.9525 8.44692 11.9449 6.08696 13.7481 4.31036C14.3032 3.76346 14.9155 3.28948 15.5749 2.89836C15.6152 2.92156 15.659 2.94808 15.6993 2.9746C15.3999 3.25965 15.114 3.57453 14.8415 3.91593C13.3545 5.80191 12.5336 8.30108 12.5336 10.9594C12.5336 13.6176 13.3545 16.1168 14.8415 18.0028C15.1106 18.3442 15.3966 18.659 15.6993 18.9441C15.6556 18.9706 15.6152 18.9938 15.5749 19.0203ZM13.1392 10.9594C13.1392 7.81384 14.3537 5.0263 16.214 3.316C16.3957 3.44526 16.574 3.58116 16.7456 3.72369C16.7018 3.80324 16.6581 3.87947 16.6144 3.96233C15.6287 5.83505 15.0837 8.32097 15.0837 10.9594C15.0837 13.5977 15.6287 16.0836 16.6144 17.9564C16.6581 18.0359 16.7018 18.1155 16.7456 18.195C16.5706 18.3375 16.3957 18.4734 16.214 18.6027C14.3537 16.8924 13.1392 14.1049 13.1392 10.9594ZM16.685 19.0004C16.8129 18.9076 16.9373 18.8115 17.0618 18.7121C17.3242 19.1131 17.6068 19.4612 17.9029 19.7595C17.4756 19.554 17.0719 19.2988 16.685 19.0004ZM17.5227 18.3177C17.627 18.2248 17.7279 18.1287 17.8255 18.0326C17.9903 17.8702 18.1518 17.7011 18.3032 17.5288C18.3335 17.6547 18.3638 17.7774 18.394 17.8967C18.6329 18.7983 18.9087 19.5142 19.2216 20.0246C18.6127 19.6899 18.0341 19.1131 17.5227 18.3177ZM20.1939 20.2467C19.8272 19.9816 19.3764 19.2325 18.9828 17.7442C18.9155 17.4857 18.8516 17.2139 18.791 16.9322C19.3865 16.1466 19.8574 15.2882 20.1905 14.3767V20.2467H20.1939ZM18.6396 16.1102C18.3839 14.5855 18.246 12.8155 18.246 10.9594C18.246 9.1032 18.3839 7.33323 18.6396 5.80854C19.6522 7.3266 20.1939 9.09989 20.1939 10.9594C20.1939 12.8188 19.6522 14.5921 18.6396 16.1102ZM20.1939 7.54205C19.8574 6.63055 19.3898 5.77208 18.7944 4.98653C18.8549 4.70479 18.9188 4.433 18.9861 4.17446C19.3764 2.68623 19.8272 1.93714 20.1972 1.67198V7.54205H20.1939ZM25.4218 2.89836C26.0273 3.25965 26.5925 3.68723 27.114 4.18109C26.9256 4.26727 26.7405 4.36339 26.5589 4.46615C26.431 4.27722 26.2965 4.0916 26.1552 3.91262C25.886 3.57122 25.6001 3.25633 25.2973 2.97128C25.3377 2.94808 25.378 2.92488 25.4218 2.89836ZM23.2553 13.6574C23.5681 14.4529 24.0189 15.192 24.5942 15.8483C24.3856 16.5079 24.1333 17.1244 23.8406 17.6813C23.8204 17.7177 23.8036 17.7509 23.7834 17.7873C23.7195 17.7277 23.659 17.668 23.595 17.6083C23.3293 17.3465 23.0803 17.0681 22.8482 16.783C23.0332 15.8351 23.1712 14.781 23.2553 13.6574ZM22.8482 5.13568C23.0803 4.84732 23.3293 4.57221 23.595 4.31036C23.6556 4.2507 23.7195 4.19104 23.7834 4.13138C23.8036 4.16784 23.8204 4.20098 23.8406 4.23744C24.1333 4.79429 24.3856 5.41079 24.5942 6.07039C24.0156 6.72667 23.5648 7.46913 23.2553 8.26131C23.1712 7.14099 23.0332 6.08365 22.8482 5.13568ZM23.3528 10.9594C23.3528 9.38494 23.8911 7.93648 24.796 6.77307C25.1257 8.05912 25.3007 9.48106 25.3007 10.9594C25.3007 12.4376 25.1257 13.8596 24.796 15.1456C23.8911 13.9822 23.3528 12.5338 23.3528 10.9594ZM25.7885 8.83472C25.6842 7.91991 25.5093 7.04487 25.2738 6.22286C25.6068 5.87814 25.9735 5.56658 26.3705 5.29478C26.6968 5.845 26.976 6.44162 27.2014 7.0747C26.6026 7.54868 26.1182 8.14861 25.7885 8.83472ZM27.3999 7.69452C27.696 8.71208 27.8574 9.81252 27.8574 10.9594C27.8574 12.1062 27.696 13.2066 27.3999 14.2242C26.4849 13.4221 25.9096 12.2553 25.9096 10.9594C25.9096 9.66336 26.4849 8.49664 27.3999 7.69452ZM25.7885 13.084C26.1182 13.7701 26.606 14.37 27.2014 14.8407C26.976 15.4738 26.6968 16.0737 26.3705 16.6206C25.9735 16.3488 25.6068 16.0372 25.2738 15.6925C25.5093 14.8771 25.6808 13.9988 25.7885 13.084ZM27.7161 15.1987C28.0425 15.3942 28.389 15.5566 28.759 15.676C28.4226 16.2461 28.0257 16.783 27.5648 17.2802C27.3293 17.1808 27.1039 17.0681 26.8818 16.9421C27.2082 16.3952 27.4874 15.8119 27.7161 15.1987ZM30.3436 13.4121C31.7195 13.4121 32.833 12.3117 32.833 10.9594C32.833 9.60701 31.7161 8.50658 30.3436 8.50658H30.3402C30.1754 7.86024 29.9466 7.23711 29.6573 6.64049C29.8827 6.60734 30.1114 6.58746 30.3436 6.58746C32.7893 6.58746 34.7809 8.54967 34.7809 10.9594C34.7809 13.369 32.7893 15.3312 30.3436 15.3312C30.1114 15.3312 29.8793 15.3147 29.6573 15.2782C29.95 14.6816 30.1787 14.0551 30.3436 13.4121ZM29.8692 12.7558C29.0618 12.547 28.463 11.8211 28.463 10.9627C28.463 10.1042 29.0618 9.37499 29.8692 9.16949C29.9836 9.75617 30.0408 10.3561 30.0408 10.9627C30.0408 11.5692 29.9836 12.1692 29.8692 12.7558ZM30.4748 9.10983C31.4537 9.17612 32.2275 9.98156 32.2275 10.9594C32.2275 11.9371 31.4537 12.7426 30.4748 12.8089C30.5891 12.2056 30.6463 11.5858 30.6463 10.9594C30.6463 10.3329 30.5891 9.71308 30.4748 9.10983ZM29.7346 8.58282C29.1863 8.71871 28.7086 9.03691 28.3722 9.46449C28.2847 8.71871 28.1299 7.99614 27.9146 7.3034C28.2611 7.07801 28.6447 6.89903 29.0517 6.77639C29.341 7.35312 29.5698 7.95968 29.7346 8.58282ZM28.3755 12.4542C28.7119 12.8818 29.1897 13.2 29.738 13.3359C29.5732 13.959 29.3444 14.5656 29.0551 15.139C28.648 15.0164 28.2679 14.8374 27.918 14.612C28.1333 13.9226 28.2847 13.2 28.3755 12.4542ZM29.3646 15.8317C29.6808 15.8947 30.0105 15.9245 30.3436 15.9245C33.1224 15.9245 35.3865 13.6972 35.3865 10.956C35.3865 8.2149 33.1257 5.98752 30.3436 5.98752C30.0071 5.98752 29.6808 6.02067 29.3646 6.08033C29.0282 5.49034 28.6278 4.92687 28.1703 4.40648C28.8532 4.18441 29.5866 4.06508 30.3436 4.06508C34.1989 4.06508 37.3343 7.15425 37.3343 10.9527C37.3343 14.7512 34.1989 17.8404 30.3436 17.8404C29.5866 17.8404 28.8532 17.721 28.1703 17.499C28.6312 16.9852 29.0282 16.425 29.3646 15.8317ZM28.759 6.24274C28.3923 6.36207 28.0425 6.52448 27.7161 6.72004C27.4874 6.10685 27.2082 5.52349 26.8818 4.97659C27.1005 4.85395 27.3293 4.74125 27.5648 4.6385C28.0257 5.13568 28.4226 5.67596 28.759 6.24274ZM26.0442 4.78766C25.701 5.02299 25.3747 5.28484 25.0685 5.57652C24.8701 4.99979 24.6413 4.45952 24.3789 3.96233C24.3352 3.88278 24.2914 3.80324 24.2477 3.72369C24.4226 3.58116 24.5976 3.44526 24.7792 3.316C25.2468 3.74357 25.6707 4.23744 26.0442 4.78766ZM24.3082 2.91825C24.1804 3.01106 24.0559 3.10718 23.9315 3.20662C23.669 2.80556 23.3865 2.45753 23.0904 2.15922C23.5177 2.36472 23.9247 2.61994 24.3082 2.91825ZM23.4706 3.60105C23.3663 3.69385 23.2653 3.78998 23.1678 3.8861C23.0029 4.04851 22.8415 4.21755 22.6901 4.38991C22.6598 4.26396 22.6295 4.14132 22.5992 4.022C22.3604 3.12044 22.0845 2.40449 21.7717 1.89405C22.3839 2.22882 22.9626 2.80887 23.4706 3.60105ZM20.7994 1.67198C21.1661 1.93714 21.6169 2.68623 22.0105 4.17446C22.0778 4.433 22.1417 4.70479 22.2023 4.98653C21.6068 5.77208 21.1358 6.63055 20.7994 7.54205V1.67198ZM22.357 5.80854C22.6127 7.33323 22.7506 9.1032 22.7506 10.9594C22.7506 12.8155 22.6127 14.5855 22.357 16.1102C21.3444 14.5921 20.8028 12.8188 20.8028 10.9594C20.8028 9.09989 21.3444 7.3266 22.357 5.80854ZM20.7994 20.2467V14.3767C21.1358 15.2882 21.6034 16.1466 22.2023 16.9322C22.1417 17.2139 22.0778 17.4857 22.0105 17.7442C21.6169 19.2325 21.1695 19.9816 20.7994 20.2467ZM21.7683 20.0246C22.0812 19.5142 22.3604 18.7983 22.5959 17.8967C22.6262 17.7774 22.6598 17.6514 22.6867 17.5288C22.8415 17.7011 22.9996 17.8702 23.1644 18.0326C23.2653 18.132 23.3663 18.2248 23.4672 18.3177C22.9626 19.1131 22.3839 19.6899 21.7683 20.0246ZM23.0938 19.7595C23.3898 19.4612 23.6724 19.1131 23.9348 18.7121C24.0593 18.8115 24.1838 18.9076 24.3116 19.0004C23.9247 19.2988 23.5177 19.554 23.0938 19.7595ZM24.7792 18.6027C24.5976 18.4734 24.4193 18.3375 24.2477 18.195C24.2914 18.1155 24.3352 18.0392 24.3789 17.9564C24.6413 17.4592 24.8701 16.9156 25.0685 16.3422C25.3747 16.6339 25.701 16.8957 26.0442 17.131C25.6707 17.6813 25.2468 18.1751 24.7792 18.6027ZM25.4218 19.0203C25.3814 18.9971 25.3377 18.9706 25.2973 18.9441C25.5967 18.659 25.8827 18.3442 26.1552 18.0028C26.2965 17.8238 26.431 17.6415 26.5589 17.4492C26.7405 17.552 26.9256 17.6481 27.114 17.7343C26.5925 18.2315 26.024 18.6591 25.4218 19.0203ZM37.0955 17.6083C35.2923 19.3849 32.897 20.3627 30.3469 20.3627C28.8196 20.3627 27.3495 20.0114 26.0273 19.3485C26.6161 18.9706 27.1678 18.5298 27.6758 18.0293C27.6892 18.016 27.7061 17.9995 27.7195 17.9829C28.5505 18.2845 29.4352 18.4403 30.3436 18.4403C32.3722 18.4403 34.2796 17.6614 35.7161 16.2494C37.1493 14.8374 37.9399 12.958 37.9399 10.956C37.9399 8.95405 37.1493 7.07801 35.7161 5.6627C34.283 4.2507 32.3755 3.47178 30.3436 3.47178C29.4319 3.47178 28.5471 3.62756 27.7195 3.92919C27.7061 3.91593 27.6892 3.89936 27.6758 3.88278C27.1678 3.38229 26.6161 2.94145 26.0273 2.56359C27.3495 1.90068 28.8196 1.54934 30.3469 1.54934C32.897 1.54934 35.2923 2.52713 37.0955 4.30373C38.8987 6.08033 39.8911 8.44029 39.8911 10.9527C39.8911 13.4651 38.8953 15.8317 37.0955 17.6083Z" fill="white"/>
</svg>
