<svg width="70" height="12" viewBox="0 0 70 12" fill="none" xmlns="http://www.w3.org/2000/svg">
<g clip-path="url(#clip0_2004_323)">
<path d="M0.932502 0.255814H2.48869C2.72769 0.255814 2.9212 0.446926 2.9212 0.682966V1.4682C3.38832 0.682296 4.21802 0.119019 5.39399 0.119019C6.76007 0.119019 7.64205 0.665532 8.0569 1.69016C8.47243 0.853291 9.56149 0.119019 10.9629 0.119019C12.8653 0.119019 14.0929 1.5024 14.0929 3.22777V8.43675C14.0929 8.67279 13.8994 8.8639 13.6604 8.8639H12.1219C11.8829 8.8639 11.6894 8.67279 11.6894 8.43675V3.97881C11.6894 2.86835 11.0844 2.13408 10.1502 2.13408C9.14732 2.13408 8.50706 2.86835 8.50706 3.97881V8.43675C8.50706 8.67279 8.31355 8.8639 8.07455 8.8639H6.51836C6.27937 8.8639 6.08586 8.67279 6.08586 8.43675V3.97881C6.08586 2.86835 5.49787 2.13408 4.5643 2.13408C3.56146 2.13408 2.9212 2.86835 2.9212 3.97881V8.43675C2.9212 8.67279 2.72769 8.8639 2.48869 8.8639H0.932502C0.693506 8.8639 0.5 8.67279 0.5 8.43675V0.682966C0.5 0.446926 0.693506 0.255814 0.932502 0.255814Z" fill="white"/>
<path d="M16.2717 4.55952C16.2717 1.99795 18.1912 0.119019 20.8717 0.119019C23.5523 0.119019 25.4717 1.99795 25.4717 4.55952C25.4717 7.12109 23.5523 9.00002 20.8717 9.00002C18.1912 9.00002 16.2717 7.12109 16.2717 4.55952ZM23.0505 4.55952C23.0505 3.12518 22.1685 2.15151 20.8717 2.15151C19.5749 2.15151 18.6929 3.12518 18.6929 4.55952C18.6929 5.99387 19.5749 6.95077 20.8717 6.95077C22.1685 6.95077 23.0505 5.9771 23.0505 4.55952Z" fill="white"/>
<path d="M28.083 0.255814H29.6392C29.8782 0.255814 30.0717 0.446926 30.0717 0.682966V1.45144C30.5558 0.614569 31.5247 0.119019 32.7177 0.119019C34.6894 0.119019 35.9685 1.51984 35.9685 3.50069V8.43675C35.9685 8.67279 35.775 8.8639 35.536 8.8639H33.9798C33.7409 8.8639 33.5473 8.67279 33.5473 8.43675V4.03044C33.5473 2.98838 32.8731 2.23734 31.8696 2.23734C30.8145 2.23734 30.071 3.04001 30.071 4.15047V8.43742C30.071 8.67346 29.8775 8.86457 29.6385 8.86457H28.0823C27.8433 8.86457 27.6498 8.67346 27.6498 8.43742V0.682966C27.6498 0.446926 27.8433 0.255814 28.0823 0.255814H28.083Z" fill="white"/>
<path d="M38.1474 4.55952C38.1474 1.99795 40.0668 0.119019 42.7474 0.119019C45.4279 0.119019 47.3474 1.99795 47.3474 4.55952C47.3474 7.12109 45.4279 9.00002 42.7474 9.00002C40.0668 9.00002 38.1474 7.12109 38.1474 4.55952ZM44.9262 4.55952C44.9262 3.12518 44.0442 2.15151 42.7474 2.15151C41.4505 2.15151 40.5686 3.12518 40.5686 4.55952C40.5686 5.99387 41.4505 6.95077 42.7474 6.95077C44.0442 6.95077 44.9262 5.9771 44.9262 4.55952Z" fill="white"/>
<path d="M50.0972 0.255814H51.6357C51.8747 0.255814 52.0682 0.446926 52.0682 0.682966V1.19528C52.5869 0.529406 53.4519 0.119019 54.5756 0.119019C57.0138 0.119019 58.5707 1.87792 58.5707 4.55952C58.5707 7.24112 56.876 9.00002 54.3685 9.00002C53.3827 9.00002 52.5353 8.67547 52.0682 8.09476V10.6912C52.0682 10.9272 51.8747 11.1183 51.6357 11.1183H50.0972C49.8582 11.1183 49.6647 10.9272 49.6647 10.6912V0.682966C49.6647 0.446926 49.8582 0.255814 50.0972 0.255814ZM56.2018 4.55952C56.2018 3.10774 55.3368 2.15151 54.0746 2.15151C52.8124 2.15151 51.9304 3.10774 51.9304 4.55952C51.9304 6.0113 52.7777 6.95077 54.0746 6.95077C55.3714 6.95077 56.2018 5.99454 56.2018 4.55952Z" fill="white"/>
<path d="M60.3 4.55952C60.3 1.99795 62.2194 0.119019 64.9 0.119019C67.5806 0.119019 69.5 1.99795 69.5 4.55952C69.5 7.12109 67.5806 9.00002 64.9 9.00002C62.2194 9.00002 60.3 7.12109 60.3 4.55952ZM67.0788 4.55952C67.0788 3.12518 66.1968 2.15151 64.9 2.15151C63.6032 2.15151 62.7212 3.12518 62.7212 4.55952C62.7212 5.99387 63.6032 6.95077 64.9 6.95077C66.1968 6.95077 67.0788 5.9771 67.0788 4.55952Z" fill="white"/>
</g>
<defs>
<clipPath id="clip0_2004_323">
<rect width="69" height="11" fill="white" transform="translate(0.5 0.119019)"/>
</clipPath>
</defs>
</svg>
